# xmcd
#
# Track frame offsets:
# 182
# 21630
# 39910
# 62260
# 82462
# 99245
# 116502
# 137287
# 155197
# 176192
#
# Disc length: 2587 seconds
#
# Revision: 1
# Processed by: cddbd v1.5.1PL0 Copyright (c) Steve Scherf et al.
# Submitted via: CedeCatalogueitor 2.6.0.5 http://personales.ya.com/cdcatalogueitor
#
DISCID=820a190a
DTITLE=LOS MARISMEÑOS - Andalucia Marismeña
DYEAR=1992
DGENRE=
TTITLE0=Arte Y Estilo
TTITLE1=Vámonos "Pa Cai"
TTITLE2=Huelva, Te Quiero
TTITLE3=Cosas Del Amor
TTITLE4=Para Vivir En La Tierra
TTITLE5=Capricho Sevillano
TTITLE6=Mañanitas De Aguardiente
TTITLE7=Festin Gitano
TTITLE8=Pastora De La Paz
TTITLE9=Mira Luna
EXTD=
EXTT0=
EXTT1=
EXTT2=
EXTT3=
EXTT4=
EXTT5=
EXTT6=
EXTT7=
EXTT8=
EXTT9=
PLAYORDER=
